<svg xmlns="http://www.w3.org/2000/svg" viewBox="0 0 600 388.537"><path fill="#935b9e" d="M119.166 155.821h29.791v29.791h-29.791z"/><path fill="#8fbf55" d="M29.791 126.029h29.791v29.791H29.791z"/><path fill="#37b7d5" d="M119.166 96.238v29.791H89.374v29.792H59.583v29.791h59.583v-29.791h29.791V96.238z"/><path fill="#fad053" d="M89.374 96.238H59.583v59.583h29.791v-29.792h29.792V96.238z"/><path fill="#da4759" d="M122.364 0v29.791h29.791v29.792h29.792V0z"/><path fill="#4b4b99" d="M59.583 66.446V36.655H0v148.957h59.583v-29.791H29.792v-29.792h29.791V96.238H29.792V66.446z"/><path fill="#e4813f" d="M89.374 66.446V36.655H59.583v29.791H29.792v29.792h89.374V66.446z"/><path d="M584.41 79.64c-7.795 0-13.692 5.898-13.692 13.06v77.95a13.217 13.217 0 0 0 13.271 13.272c7.585 0 13.483-5.9 13.483-13.273V92.7c0-7.162-5.898-13.06-13.061-13.06zm-93.112 29.282c0-5.687 6.32-10.112 16.01-10.112 8.218 0 16.434 2.318 22.965 6.11 1.474.842 3.37 1.264 5.056 1.264 5.478 0 10.533-4.424 10.533-10.113a9.216 9.216 0 0 0-1.685-5.266c-5.688-8.217-23.807-12.43-37.078-12.43-26.756 0-41.714 14.957-41.714 32.022 0 40.028 60.463 26.334 60.463 43.19 0 6.319-5.478 10.953-17.063 10.953-8.85 0-19.383-3.58-27.388-8.216-1.686-1.054-3.582-1.474-5.478-1.474-5.688 0-11.165 4.846-11.165 11.165 0 2.106.631 4.002 1.895 5.688 6.32 9.06 27.599 13.483 40.87 13.483 28.232 0 44.031-14.115 44.031-32.654 0-41.081-60.252-28.442-60.252-43.61zm-183.972 48.666c-1.686 0-3.582.422-5.267 1.264-6.32 3.372-14.115 5.056-19.803 5.056-17.275 0-27.599-10.744-29.284-23.595h62.78c6.953 0 12.43-5.688 12.43-12.219 0-5.056-1.474-10.745-2.948-15.379-7.164-21.068-24.65-34.34-47.613-34.34-30.97 0-52.669 23.806-52.669 53.3 0 32.655 23.385 53.511 54.354 53.511 13.483 0 39.396-4.845 39.396-16.853 0-6.321-5.688-10.745-11.376-10.745zM277.62 99.653c17.697 0 24.438 12.852 25.07 22.542h-50.14c1.263-10.112 8.427-22.542 25.07-22.542zm127.77-21.278c-12.432 0-23.597 5.478-31.392 15.38V92.7c0-7.162-5.898-13.06-13.061-13.06-7.796 0-13.694 5.898-13.694 13.06v116.925c0 7.163 5.898 13.06 13.272 13.06 7.585 0 13.483-5.897 13.483-13.06v-40.028c8.217 10.534 19.382 15.59 31.391 15.59 26.123 0 45.084-19.593 45.084-53.511 0-33.919-18.961-53.3-45.084-53.3zm-8.428 83.005c-8.637 0-18.539-5.266-22.964-11.587v-36.024c4.425-6.532 14.327-11.588 22.964-11.588 15.379 0 25.702 12.008 25.702 29.495 0 17.696-10.323 29.704-25.702 29.704zm187.026-91.432c8.85 0 16.011-7.163 16.011-16.011s-7.162-15.801-16.011-15.801c-8.637 0-16.011 6.953-16.011 15.8s7.374 16.012 16.011 16.012zM49.207 318.523l-3.183-3.659c-1.803 1.84-4.102 2.755-6.885 2.755-2.186 0-4.014-.544-5.486-1.637-1.472-1.093-2.384-2.574-2.735-4.441h19.906c.06-.763.093-1.347.093-1.759 0-2.593-.545-4.885-1.638-6.86-1.093-1.981-2.614-3.518-4.562-4.611-1.944-1.093-4.154-1.638-6.623-1.638-2.505 0-4.751.553-6.748 1.662a11.97 11.97 0 0 0-4.675 4.63c-1.125 1.98-1.69 4.203-1.69 6.676 0 2.5.58 4.743 1.734 6.72 1.158 1.98 2.796 3.525 4.917 4.63 2.122 1.11 4.574 1.662 7.362 1.662 2.186 0 4.15-.347 5.893-1.044 1.738-.694 3.182-1.723 4.32-3.086zM33.27 303.11c1.315-1.126 2.924-1.686 4.824-1.686 1.928 0 3.546.568 4.844 1.706 1.3 1.141 2.074 2.63 2.328 4.465H30.874c.282-1.868 1.085-3.364 2.396-4.485zm26.246 45.43c1.17 0 2.263.35 3.28 1.044l1.661-4.465c-1.298-.915-3.09-1.375-5.368-1.375-2.88 0-5.115.782-6.696 2.351-1.585 1.565-2.376 3.711-2.376 6.434v1.617H45.84v4.748h4.178v20.426h5.938v-20.426h6.792v-4.748h-6.982v-1.52c0-2.723 1.25-4.086 3.751-4.086zm24.746 6.792c-2.057-1.11-4.384-1.662-6.982-1.662-2.565 0-4.876.553-6.934 1.662-2.06 1.11-3.666 2.646-4.824 4.606-1.153 1.965-1.734 4.2-1.734 6.7 0 2.501.58 4.744 1.734 6.72 1.158 1.98 2.763 3.525 4.824 4.63 2.058 1.11 4.369 1.662 6.934 1.662 2.598 0 4.925-.552 6.982-1.661 2.057-1.106 3.667-2.65 4.82-4.631 1.158-1.976 1.735-4.219 1.735-6.72 0-2.5-.577-4.735-1.735-6.7-1.153-1.96-2.763-3.497-4.82-4.606zm-1.569 17.054c-1.424 1.456-3.227 2.182-5.413 2.182-2.186 0-3.981-.726-5.393-2.182-1.408-1.456-2.113-3.372-2.113-5.748 0-2.376.705-4.292 2.113-5.748 1.412-1.456 3.207-2.186 5.393-2.186s3.99.73 5.413 2.186c1.428 1.456 2.138 3.372 2.138 5.748 0 2.376-.71 4.292-2.138 5.748zm36.294-85.31h-5.937v35.245h5.937v-35.245zm-12.9 29.284c1.158-1.977 1.735-4.22 1.735-6.72s-.577-4.735-1.734-6.7c-1.154-1.96-2.763-3.497-4.82-4.606-2.057-1.11-4.385-1.662-6.982-1.662-2.566 0-4.877.553-6.934 1.662-2.061 1.11-3.667 2.646-4.824 4.606-1.154 1.965-1.735 4.2-1.735 6.7s.581 4.743 1.735 6.72c1.157 1.98 2.763 3.525 4.824 4.63 2.057 1.11 4.368 1.662 6.934 1.662 2.597 0 4.925-.552 6.982-1.662 2.057-1.105 3.666-2.65 4.82-4.63zm-11.801 1.21c-2.187 0-3.982-.726-5.393-2.182-1.408-1.456-2.114-3.372-2.114-5.748s.706-4.292 2.114-5.748c1.411-1.456 3.206-2.186 5.393-2.186 2.186 0 3.989.73 5.413 2.186 1.427 1.456 2.137 3.372 2.137 5.748s-.71 4.292-2.137 5.748c-1.424 1.456-3.227 2.182-5.413 2.182zm7.41 40.09v-3.703h-5.652v25.363h5.938v-12.303c0-2.533.645-4.473 1.944-5.82 1.299-1.343 3.106-2.017 5.417-2.017.411 0 .871.048 1.375.141v-5.65c-4.304 0-7.313 1.33-9.023 3.988zm-40.994-36.67c2.09 1.11 4.45 1.662 7.08 1.662 2.468 0 4.646-.512 6.53-1.54a10.302 10.302 0 0 0 4.3-4.397l-4.563-2.658c-.73 1.173-1.637 2.049-2.73 2.638-1.094.585-2.288.875-3.586.875-2.251 0-4.094-.718-5.534-2.158-1.44-1.444-2.162-3.364-2.162-5.772s.73-4.332 2.186-5.772c1.456-1.44 3.291-2.162 5.51-2.162 1.298 0 2.492.294 3.585.88s2.001 1.463 2.731 2.637l4.562-2.662c-.952-1.9-2.368-3.356-4.251-4.368-1.884-1.013-4.078-1.52-6.579-1.52-2.662 0-5.03.552-7.103 1.66-2.073 1.11-3.695 2.647-4.869 4.607-1.17 1.965-1.758 4.2-1.758 6.7s.589 4.743 1.758 6.72c1.174 1.98 2.804 3.525 4.893 4.63zm70.156 0c2.121 1.11 4.574 1.662 7.361 1.662 2.186 0 4.15-.347 5.893-1.044 1.739-.694 3.183-1.723 4.32-3.086l-3.182-3.659c-1.803 1.84-4.103 2.755-6.886 2.755-2.186 0-4.013-.544-5.485-1.637-1.473-1.093-2.384-2.574-2.735-4.441h19.905c.061-.763.093-1.347.093-1.759 0-2.593-.544-4.885-1.637-6.86-1.093-1.981-2.614-3.518-4.562-4.611-1.945-1.093-4.155-1.638-6.623-1.638-2.505 0-4.752.553-6.749 1.662a11.971 11.971 0 0 0-4.675 4.63c-1.125 1.98-1.69 4.203-1.69 6.676 0 2.5.581 4.743 1.735 6.72 1.158 1.98 2.795 3.525 4.917 4.63zm1.637-17.88c1.315-1.126 2.925-1.686 4.825-1.686 1.928 0 3.545.568 4.844 1.706 1.299 1.141 2.073 2.63 2.327 4.465H130.1c.283-1.868 1.086-3.364 2.396-4.485zM31.54 353.67c-1.872 0-3.55.303-5.034.904-1.493.6-2.727 1.488-3.707 2.658v-3.275h-5.651v25.363h5.937v-12.827c0-2.469.633-4.36 1.9-5.675 1.267-1.311 2.993-1.969 5.175-1.969 1.932 0 3.42.561 4.465 1.686 1.045 1.122 1.57 2.796 1.57 5.01v13.775h5.937v-14.533c0-3.675-.968-6.446-2.9-8.313-1.928-1.868-4.494-2.804-7.692-2.804zm115.755 0c-1.997 0-3.816.371-5.466 1.118-1.646.742-2.989 1.778-4.038 3.11a8.227 8.227 0 0 0-3.489-3.159c-1.472-.714-3.158-1.069-5.058-1.069-1.742 0-3.327.303-4.751.904-1.424.6-2.614 1.472-3.562 2.61v-3.227h-5.65v25.363h5.937V366.45c0-2.473.593-4.357 1.778-5.655 1.19-1.295 2.796-1.945 4.82-1.945 1.84 0 3.247.561 4.232 1.686.98 1.122 1.472 2.796 1.472 5.01v13.775h5.937V366.45c0-2.44.601-4.316 1.803-5.631 1.202-1.311 2.804-1.969 4.796-1.969 1.84 0 3.247.561 4.231 1.686.98 1.122 1.473 2.796 1.473 5.01v13.775h5.937v-14.533c0-3.707-.936-6.486-2.803-8.338-1.868-1.851-4.4-2.779-7.6-2.779zm83.167-44.175c0-2.469.634-4.36 1.9-5.675 1.267-1.311 2.993-1.969 5.175-1.969 1.932 0 3.42.56 4.465 1.686 1.045 1.122 1.57 2.795 1.57 5.01v13.774h5.937V307.79c0-3.675-.968-6.446-2.9-8.314-1.928-1.867-4.494-2.803-7.692-2.803-1.872 0-3.55.303-5.034.904-1.493.6-2.727 1.488-3.707 2.658v-3.276h-5.651v25.363h5.937v-12.826zm-29.973-15.34l-1.9 7.313h3.848l2.469-6.744c.411-1.077.69-1.884.83-2.42.146-.54.214-1.093.214-1.666 0-1.138-.362-2.073-1.093-2.8-.726-.73-1.645-1.093-2.755-1.093-1.105 0-2.024.364-2.754 1.094-.726.726-1.09 1.661-1.09 2.799 0 .855.198 1.593.593 2.21.396.617.94 1.053 1.638 1.307zm-153.134-7.172h-6.982l-6.413 6.507h5.13l8.265-6.507zm-37.52.093H3.898v35.245h5.937v-35.245zM6.89 342.652c-1.076 0-1.98.338-2.71 1.02-.726.682-1.093 1.529-1.093 2.541s.367 1.86 1.093 2.541c.73.682 1.634 1.02 2.71 1.02 1.106 0 2.017-.354 2.731-1.068.71-.71 1.07-1.59 1.07-2.634 0-.98-.368-1.799-1.094-2.448-.73-.646-1.634-.972-2.707-.972zm12.537-41.183l2.468-6.744c.412-1.077.69-1.884.831-2.42.145-.54.214-1.093.214-1.666 0-1.138-.363-2.073-1.093-2.8-.726-.73-1.646-1.093-2.755-1.093-1.105 0-2.025.364-2.755 1.094-.726.726-1.089 1.661-1.089 2.799 0 .855.198 1.593.593 2.21.395.617.94 1.053 1.638 1.307l-1.9 7.313h3.848zm-15.53 77.852h5.938v-25.363H3.898v25.363zm408.108-56.999h5.937V296.96h-5.937v25.363zm-237.492 31.35c-2.09 0-4.07.27-5.937.806-1.868.54-3.47 1.315-4.796 2.327l2.327 4.324c.948-.79 2.114-1.407 3.49-1.851 1.379-.444 2.778-.666 4.202-.666 2.09 0 3.667.472 4.727 1.424 1.061.948 1.594 2.311 1.594 4.086v.38h-6.559c-3.638 0-6.308.69-8.003 2.065-1.694 1.379-2.54 3.206-2.54 5.485 0 1.456.387 2.763 1.165 3.92.774 1.154 1.876 2.058 3.3 2.707 1.423.65 3.09.972 4.989.972s3.521-.29 4.869-.875c1.343-.589 2.38-1.436 3.11-2.541v3.086h5.606v-14.868c0-3.61-.992-6.309-2.969-8.1-1.98-1.786-4.84-2.682-8.575-2.682zm5.607 17.715c-.476 1.266-1.291 2.242-2.449 2.924-1.157.682-2.476 1.02-3.965 1.02-1.52 0-2.706-.318-3.561-.951s-1.283-1.489-1.283-2.566c0-2.246 1.71-3.372 5.127-3.372h6.13v2.945zm201.218-73.076c-1.945-1.093-4.155-1.638-6.623-1.638-2.505 0-4.752.553-6.749 1.662a11.971 11.971 0 0 0-4.675 4.63c-1.125 1.98-1.69 4.203-1.69 6.676 0 2.5.581 4.743 1.735 6.72 1.157 1.98 2.795 3.525 4.917 4.63 2.121 1.11 4.574 1.662 7.361 1.662 2.186 0 4.15-.347 5.893-1.044 1.738-.694 3.182-1.723 4.32-3.086l-3.183-3.659c-1.803 1.84-4.102 2.755-6.885 2.755-2.186 0-4.013-.544-5.485-1.637-1.473-1.093-2.384-2.574-2.735-4.441h19.905c.06-.763.093-1.347.093-1.759 0-2.593-.544-4.885-1.637-6.86-1.094-1.981-2.614-3.518-4.562-4.611zm-13.844 9.285c.283-1.868 1.085-3.364 2.396-4.485 1.315-1.126 2.925-1.686 4.825-1.686 1.928 0 3.545.568 4.844 1.706 1.299 1.141 2.073 2.63 2.327 4.465h-14.392zm-59.773 47.713c-1.944-1.093-4.154-1.638-6.623-1.638-2.505 0-4.751.553-6.748 1.662a11.971 11.971 0 0 0-4.675 4.63c-1.125 1.981-1.69 4.204-1.69 6.676 0 2.501.58 4.744 1.734 6.72 1.158 1.98 2.796 3.525 4.917 4.63 2.122 1.11 4.574 1.662 7.362 1.662 2.186 0 4.15-.346 5.893-1.044 1.738-.694 3.182-1.723 4.32-3.086l-3.183-3.658c-1.803 1.839-4.102 2.755-6.885 2.755-2.186 0-4.014-.545-5.486-1.638-1.472-1.093-2.384-2.574-2.735-4.441h19.906c.06-.762.093-1.347.093-1.759 0-2.593-.545-4.884-1.638-6.86-1.093-1.981-2.614-3.518-4.562-4.611zm-13.843 9.285c.282-1.867 1.085-3.364 2.396-4.485 1.315-1.126 2.924-1.686 4.824-1.686 1.928 0 3.546.569 4.844 1.706 1.3 1.142 2.074 2.63 2.328 4.465h-14.392zm-4.97-61.629c-1.125 1.98-1.69 4.203-1.69 6.676 0 2.5.581 4.743 1.735 6.72 1.158 1.98 2.795 3.525 4.917 4.63 2.122 1.11 4.574 1.662 7.361 1.662 2.186 0 4.15-.347 5.893-1.044 1.739-.694 3.183-1.723 4.32-3.086l-3.182-3.659c-1.803 1.84-4.102 2.755-6.886 2.755-2.186 0-4.013-.544-5.485-1.637-1.472-1.093-2.384-2.574-2.735-4.441h19.906c.06-.763.092-1.347.092-1.759 0-2.593-.544-4.885-1.637-6.86-1.093-1.981-2.614-3.518-4.562-4.611-1.944-1.093-4.155-1.638-6.623-1.638-2.505 0-4.752.553-6.748 1.662a11.97 11.97 0 0 0-4.675 4.63zm6.6.146c1.315-1.126 2.924-1.686 4.824-1.686 1.928 0 3.545.568 4.844 1.706 1.299 1.141 2.073 2.63 2.327 4.465h-14.391c.282-1.868 1.085-3.364 2.396-4.485zm119.49-17.458c-1.077 0-1.98.34-2.71 1.02-.727.683-1.094 1.53-1.094 2.542s.367 1.86 1.093 2.541c.73.682 1.634 1.02 2.71 1.02 1.106 0 2.017-.354 2.731-1.068.71-.71 1.07-1.59 1.07-2.634 0-.98-.368-1.8-1.094-2.449-.73-.645-1.633-.972-2.706-.972zm-82.224 11.02c-1.872 0-3.55.303-5.034.904-1.493.6-2.727 1.488-3.707 2.658v-3.276h-5.651v25.363h5.937v-12.826c0-2.469.634-4.36 1.9-5.675 1.267-1.311 2.993-1.969 5.175-1.969 1.932 0 3.42.56 4.465 1.686 1.045 1.122 1.57 2.795 1.57 5.01v13.774h5.937V307.79c0-3.675-.968-6.446-2.9-8.314-1.928-1.867-4.494-2.803-7.692-2.803zm17.67 25.65h5.938v-25.364h-5.937v25.363zm2.993-36.67c-1.076 0-1.98.34-2.71 1.02-.726.683-1.093 1.53-1.093 2.542s.367 1.86 1.093 2.541c.73.682 1.634 1.02 2.71 1.02 1.106 0 2.017-.354 2.731-1.068.71-.71 1.07-1.59 1.07-2.634 0-.98-.368-1.8-1.094-2.449-.73-.645-1.634-.972-2.707-.972zm44.979 15.01v-3.704h-5.651v25.363h5.937V310.02c0-2.533.645-4.473 1.944-5.82 1.299-1.343 3.106-2.017 5.417-2.017.412 0 .872.048 1.376.141v-5.65c-4.304 0-7.313 1.33-9.023 3.988zM276.824 366.78c0 2.469-.625 4.365-1.875 5.676-1.255 1.314-2.941 1.972-5.059 1.972-1.903 0-3.368-.56-4.396-1.686-1.029-1.125-1.54-2.828-1.54-5.107v-13.677h-5.938v14.484c0 3.707.972 6.502 2.92 8.386 1.948 1.884 4.614 2.823 8.003 2.823 1.645 0 3.182-.306 4.606-.923 1.428-.617 2.614-1.497 3.561-2.638v3.23h5.656v-25.362h-5.938v12.822zm32.769-79.796h-6.982l-6.414 6.507h5.131l8.265-6.507zm-95.325 5.793c1.105 0 2.016-.355 2.73-1.07.71-.71 1.07-1.588 1.07-2.633 0-.98-.368-1.8-1.094-2.449-.73-.645-1.633-.972-2.706-.972-1.077 0-1.98.34-2.71 1.02-.727.683-1.094 1.53-1.094 2.542s.367 1.86 1.093 2.541c.73.682 1.634 1.02 2.71 1.02zm-10.83 81.986c-1.138 0-2.01-.327-2.61-.976-.605-.65-.904-1.59-.904-2.828v-12.064h6.793v-4.748h-6.793v-5.796h-5.937v5.796h-4.179v4.748h4.179v12.21c0 2.786.758 4.908 2.279 6.364 1.52 1.456 3.675 2.182 6.462 2.182a11.42 11.42 0 0 0 3.158-.427c.996-.283 1.843-.71 2.541-1.283l-1.662-4.227c-.887.698-1.996 1.049-3.327 1.049zm13.774-77.804h-5.937v25.363h5.937V296.96zm-24.37 25.363v-35.245h-5.938v13.017a9.21 9.21 0 0 0-3.562-2.566c-1.391-.569-2.928-.855-4.606-.855-2.44 0-4.63.54-6.579 1.613-1.948 1.077-3.477 2.598-4.582 4.562-1.109 1.965-1.666 4.228-1.666 6.793s.557 4.836 1.666 6.817c1.105 1.976 2.634 3.505 4.582 4.582 1.949 1.077 4.139 1.613 6.58 1.613 1.742 0 3.33-.298 4.77-.9a9.13 9.13 0 0 0 3.635-2.71v3.28h5.7zm-6.837-8.502c-.666 1.206-1.57 2.13-2.707 2.779-1.141.65-2.424.972-3.848.972-1.428 0-2.71-.323-3.848-.972-1.141-.65-2.045-1.573-2.706-2.78-.666-1.201-1-2.597-1-4.178 0-1.585.334-2.977 1-4.179.661-1.206 1.565-2.13 2.706-2.779 1.138-.65 2.42-.976 3.848-.976 1.424 0 2.707.327 3.848.976 1.138.65 2.041 1.573 2.707 2.78.665 1.201.996 2.593.996 4.178 0 1.581-.33 2.977-.996 4.179zm26.839 65.5h5.937v-25.362h-5.937v25.363zm230.054-81.01c-1.944-1.092-4.155-1.637-6.623-1.637-2.505 0-4.752.553-6.749 1.662a11.97 11.97 0 0 0-4.674 4.63c-1.126 1.98-1.69 4.203-1.69 6.676 0 2.5.58 4.743 1.734 6.72 1.158 1.98 2.795 3.525 4.917 4.63 2.122 1.11 4.574 1.662 7.361 1.662 2.186 0 4.15-.347 5.893-1.044 1.739-.694 3.183-1.723 4.32-3.086l-3.182-3.659c-1.803 1.84-4.103 2.755-6.886 2.755-2.186 0-4.013-.544-5.485-1.637-1.473-1.093-2.384-2.574-2.735-4.441h19.906c.06-.763.092-1.347.092-1.759 0-2.593-.544-4.885-1.637-6.86-1.093-1.981-2.614-3.518-4.562-4.611zm-13.843 9.286c.282-1.868 1.085-3.364 2.396-4.485 1.314-1.126 2.924-1.686 4.824-1.686 1.928 0 3.545.568 4.844 1.706 1.299 1.141 2.073 2.63 2.327 4.465h-14.391zM245.233 357.28a9.16 9.16 0 0 0-3.634-2.706c-1.44-.601-3.03-.904-4.772-.904-2.468 0-4.67.54-6.603 1.614-1.932 1.077-3.452 2.597-4.557 4.562-1.11 1.964-1.666 4.227-1.666 6.792 0 2.598.548 4.877 1.641 6.841 1.093 1.96 2.61 3.481 4.558 4.558s4.159 1.613 6.627 1.613c3.42 0 6.127-1.137 8.124-3.416v12.302h5.937v-34.58h-5.655v3.324zm-2.327 15.106c-1.424 1.456-3.227 2.182-5.413 2.182s-3.981-.726-5.393-2.182c-1.408-1.456-2.114-3.372-2.114-5.748 0-2.376.706-4.292 2.114-5.748 1.412-1.456 3.207-2.186 5.393-2.186s3.99.73 5.413 2.186c1.428 1.456 2.138 3.372 2.138 5.748 0 2.376-.71 4.292-2.138 5.748zm31.208-47.45c-1.3 1.266-3.34 1.899-6.127 1.899a16.53 16.53 0 0 1-5.155-.83c-1.694-.558-3.094-1.292-4.203-2.211l-2.658 4.465c1.424 1.17 3.227 2.065 5.413 2.682s4.497.928 6.933.928c9.12 0 13.682-4.465 13.682-13.396V296.96h-5.65v3.372a9.273 9.273 0 0 0-3.78-2.754c-1.505-.601-3.175-.904-5.01-.904-2.408 0-4.582.508-6.53 1.52-1.948 1.013-3.485 2.445-4.607 4.3-1.125 1.852-1.69 3.982-1.69 6.386 0 2.408.565 4.545 1.69 6.413a11.578 11.578 0 0 0 4.607 4.348c1.948 1.029 4.122 1.541 6.53 1.541 1.743 0 3.34-.282 4.796-.855 1.456-.569 2.694-1.408 3.707-2.517v1.331c0 2.598-.65 4.53-1.948 5.796zm-.117-10.807c-1.444 1.343-3.288 2.017-5.534 2.017-2.28 0-4.143-.674-5.583-2.017-1.44-1.347-2.162-3.097-2.162-5.251 0-2.118.722-3.844 2.162-5.175 1.44-1.332 3.304-1.997 5.583-1.997 2.246 0 4.09.665 5.534 1.997 1.44 1.33 2.158 3.057 2.158 5.175 0 2.154-.718 3.904-2.158 5.251zm-58.16 28.522c-1.077 0-1.98.338-2.71 1.02-.727.682-1.094 1.529-1.094 2.541s.367 1.86 1.093 2.541c.73.682 1.634 1.02 2.71 1.02 1.106 0 2.018-.354 2.731-1.068.71-.71 1.07-1.59 1.07-2.634 0-.98-.368-1.799-1.094-2.448-.73-.646-1.633-.972-2.706-.972z" fill="#1d1e1c"/></svg>