<?xml version="1.0" encoding="UTF-8"?>
<svg width="60px" height="60px" viewBox="0 0 60 60" version="1.1" xmlns="http://www.w3.org/2000/svg" xmlns:xlink="http://www.w3.org/1999/xlink">
    <!-- Generator: Sketch 46 (44423) - http://www.bohemiancoding.com/sketch -->
    <title>LogoSIG</title>
    <desc>Created with Sketch.</desc>
    <defs>
        <radialGradient cx="50%" cy="50%" fx="50%" fy="50%" r="47.0886227%" gradientTransform="translate(0.500000,0.500000),scale(1.000000,0.954545),rotate(90.000000),scale(1.000000,0.950782),translate(-0.500000,-0.500000)" id="radialGradient-1">
            <stop stop-color="#FFFFFF" offset="0%"/>
            <stop stop-color="#FFD032" offset="100%"/>
        </radialGradient>
    </defs>
    <g id="-" stroke="none" stroke-width="1" fill="none" fill-rule="evenodd">
        <g id="LogoSIG">
            <g id="Page-1" transform="translate(3.000000, 2.000000)">
                <g id="Group-14" transform="translate(0.000000, 0.859000)">
                    <path d="M26.931,0 C12.058,0 0,12.057 0,26.93 C0,26.961 0.003,26.992 0.003,27.023 L53.86,27.023 C53.86,26.992 53.862,26.961 53.862,26.93 C53.862,12.057 41.805,0 26.931,0" id="Fill-1" fill="#FFD032"/>
                    <rect id="Rectangle" fill="url(#radialGradient-1)" x="6" y="5" width="42" height="44" rx="21"/>
                    <path d="M26.928,53.836 C41.771,53.836 53.806,41.829 53.857,27 L0,27 C0.051,41.829 12.086,53.836 26.928,53.836" id="Fill-6" fill="#68737A"/>
                    <path d="M20.577,30.024 C18.443,29.31 17.173,29.035 15.924,29.035 C14.609,29.035 13.769,29.392 13.769,29.942 C13.769,31.62 21.244,31.147 21.244,35.013 C21.244,37.142 18.874,38.375 15.601,38.375 C13.032,38.375 11.764,37.872 10.299,37.304 L10.299,34.915 C12.411,35.973 13.705,36.346 15.319,36.346 C16.72,36.346 17.473,35.973 17.473,35.322 C17.473,33.503 10,34.168 10,30.188 C10,28.27 12.196,27 15.601,27 C17.235,27 18.72,27.263 20.577,27.867 L20.577,30.024 Z" id="Fill-9" fill="#FEFEFE"/>
                    <polygon id="Fill-11" fill="#FEFEFE" points="25 38.082 28.59 38.082 28.59 27 25 27"/>
                    <path d="M44.339,30.333 C42.759,29.654 41.236,29.311 39.711,29.311 C36.354,29.311 35.17,31.162 35.17,32.804 C35.17,34.769 36.902,36.069 39.461,36.069 C40.221,36.069 40.601,36.005 41.509,35.679 L41.509,34.38 L39.711,34.38 L39.711,32.351 L44.594,32.351 L44.594,36.882 C43.669,37.743 41.381,38.375 39.382,38.375 C35.068,38.375 32,36.021 32,32.704 C32,29.325 35.045,27 39.461,27 C41.31,27 43.107,27.376 44.339,27.915 L44.339,30.333" id="Fill-13" fill="#FEFEFE"/>
                </g>
            </g>
        </g>
    </g>
</svg>